<svg xmlns="http://www.w3.org/2000/svg" width="920" height="208" viewBox="0 0 920 208" role="img">
<rect width="920" height="208" fill="#1a1a19"/>
<text x="16" y="26" font-family="system-ui, -apple-system, 'Segoe UI', sans-serif" font-size="13" font-weight="600" fill="#ffffff">Official service main thread — initial replication of the 5m fixture</text>
<text x="16" y="44" font-family="system-ui, -apple-system, 'Segoe UI', sans-serif" font-size="11.5" fill="#c3c2b7">1363.9 s of profiled self time across 3 profiles</text>
<text x="16" y="72" font-family="system-ui, -apple-system, 'Segoe UI', sans-serif" font-size="11" fill="#898781">profiled time</text>
<path d="M20.00,78 h392.45 v24 h-392.45 a4,4 0 0 1 -4,-4 v-16 a4,4 0 0 1 4,-4 z" fill="#2c2c2a"/><text x="214.23" y="93.5" text-anchor="middle" font-family="system-ui, -apple-system, 'Segoe UI', sans-serif" font-size="11" fill="#ffffff">idle 45.1%</text><path d="M414.45,78 h158.95 v24 h-158.95 v-24 z" fill="#3987e5"/><path d="M575.40,78 h107.99 v24 h-107.99 v-24 z" fill="#008300"/><path d="M685.39,78 h35.03 v24 h-35.03 v-24 z" fill="#d55181"/><path d="M722.42,78 h177.58 a4,4 0 0 1 4,4 v16 a4,4 0 0 1 -4,4 h-177.58 v-24 z" fill="#c98500"/>
<text x="16" y="128" font-family="system-ui, -apple-system, 'Segoe UI', sans-serif" font-size="11" fill="#898781">active CPU</text>
<path d="M20.00,134 h285.92 v24 h-285.92 a4,4 0 0 1 -4,-4 v-16 a4,4 0 0 1 4,-4 z" fill="#3987e5"/><text x="160.96" y="149.5" text-anchor="middle" font-family="system-ui, -apple-system, 'Segoe UI', sans-serif" font-size="11" fill="#0b0b0b">32.9%</text><path d="M307.92,134 h196.98 v24 h-196.98 v-24 z" fill="#008300"/><text x="406.41" y="149.5" text-anchor="middle" font-family="system-ui, -apple-system, 'Segoe UI', sans-serif" font-size="11" fill="#ffffff">22.3%</text><path d="M506.90,134 h63.90 v24 h-63.90 v-24 z" fill="#d55181"/><text x="538.85" y="149.5" text-anchor="middle" font-family="system-ui, -apple-system, 'Segoe UI', sans-serif" font-size="11" fill="#0b0b0b">7.2%</text><path d="M572.80,134 h327.20 a4,4 0 0 1 4,4 v16 a4,4 0 0 1 -4,4 h-327.20 v-24 z" fill="#c98500"/><text x="738.40" y="149.5" text-anchor="middle" font-family="system-ui, -apple-system, 'Segoe UI', sans-serif" font-size="11" fill="#0b0b0b">37.6%</text>
<rect x="16" y="177" width="10" height="10" rx="2" fill="#3987e5"/><text x="31" y="186" font-family="system-ui, -apple-system, 'Segoe UI', sans-serif" font-size="12" fill="#c3c2b7">BSON + MongoDB driver</text><rect x="185.4" y="177" width="10" height="10" rx="2" fill="#008300"/><text x="200.4" y="186" font-family="system-ui, -apple-system, 'Segoe UI', sans-serif" font-size="12" fill="#c3c2b7">row processing</text><rect x="310" y="177" width="10" height="10" rx="2" fill="#d55181"/><text x="325" y="186" font-family="system-ui, -apple-system, 'Segoe UI', sans-serif" font-size="12" fill="#c3c2b7">GC</text><rect x="357.8" y="177" width="10" height="10" rx="2" fill="#c98500"/><text x="372.8" y="186" font-family="system-ui, -apple-system, 'Segoe UI', sans-serif" font-size="12" fill="#c3c2b7">runtime + dependencies</text>
</svg>